<svg width="27" height="26" viewBox="0 0 27 26" fill="none" xmlns="http://www.w3.org/2000/svg">
<path d="M4.65399 0H21.6272C24.2006 0 26.2811 2.08058 26.2811 4.65397V20.9701C26.2811 23.5435 24.2006 25.6241 21.6272 25.6241H4.65399C2.0806 25.6241 0 23.5435 0 20.9701V4.65397C0 2.08058 2.0806 0 4.65399 0Z" fill="#470137"/>
<path d="M13.8198 6.73458L10.5345 12.155L14.0388 17.904C14.0607 17.9478 14.0715 17.9917 14.0607 18.0354C14.0497 18.0793 14.0059 18.0464 13.9402 18.0573H11.4325C11.2574 18.0573 11.1369 18.0464 11.0602 17.9369C10.8302 17.477 10.5893 17.028 10.3594 16.568C10.1294 16.1191 9.87758 15.6592 9.61469 15.1884C9.35191 14.7174 9.08913 14.2465 8.82634 13.7647H8.80446C8.57445 14.2356 8.32255 14.7065 8.07076 15.1774C7.81886 15.6483 7.56697 16.1191 7.32607 16.579C7.07428 17.0389 6.82238 17.5099 6.57049 17.9588C6.52672 18.0683 6.4391 18.0793 6.3187 18.0793H3.90956C3.8657 18.0793 3.83293 18.1012 3.83293 18.0464C3.82194 18.0026 3.83293 17.9588 3.85481 17.9259L7.26043 12.3412L3.94244 6.72359C3.90957 6.67982 3.89857 6.63596 3.92045 6.61408C3.94244 6.5812 3.9862 6.57031 4.02996 6.57031H6.51573C6.57048 6.57031 6.62524 6.5812 6.66911 6.59219C6.71287 6.61408 6.74574 6.64695 6.77862 6.69071C6.98665 7.16163 7.22755 7.63254 7.47944 8.10336C7.74223 8.57427 7.99413 9.0342 8.2678 9.49412C8.53069 9.95404 8.77158 10.4139 9.00149 10.8848H9.02338C9.2534 10.403 9.49429 9.93206 9.7352 9.47214C9.9761 9.01221 10.228 8.55229 10.4798 8.09237C10.7317 7.63254 10.9726 7.16163 11.2135 6.7127C11.2245 6.66883 11.2464 6.62507 11.2792 6.60319C11.323 6.5812 11.3669 6.57031 11.4216 6.5812H13.7321C13.7869 6.57031 13.8416 6.60319 13.8526 6.65794C13.8635 6.66883 13.8416 6.7127 13.8198 6.73458Z" fill="#FF61F6"/>
<path d="M18.8792 18.2871C18.0689 18.2981 17.2585 18.1338 16.5248 17.7944C15.8349 17.4767 15.2656 16.9512 14.8713 16.3051C14.4661 15.6371 14.269 14.8048 14.269 13.8083C14.2581 12.998 14.4661 12.1987 14.8713 11.4978C15.2874 10.786 15.8896 10.1947 16.6125 9.80052C17.3789 9.37347 18.2988 9.16533 19.3829 9.16533C19.4376 9.16533 19.5143 9.16533 19.6128 9.17633C19.7114 9.18722 19.8209 9.18722 19.9523 9.19821V5.73784C19.9523 5.6612 19.9852 5.61744 20.0618 5.61744H22.2847C22.3395 5.60645 22.3833 5.65021 22.3942 5.69407C22.3942 5.70496 22.3942 5.71596 22.3942 5.71596V16.1408C22.3942 16.338 22.4052 16.5569 22.4162 16.7979C22.4381 17.0278 22.449 17.2468 22.46 17.433C22.46 17.5096 22.4271 17.5754 22.3505 17.6082C21.781 17.8491 21.1787 18.0243 20.5655 18.1338C20.0071 18.2323 19.4486 18.2871 18.8792 18.2871ZM19.9523 16.0971V11.2788C19.8538 11.2569 19.7552 11.235 19.6567 11.224C19.5362 11.2131 19.4158 11.2022 19.2953 11.2022C18.8682 11.2022 18.4412 11.2898 18.0579 11.4868C17.6856 11.673 17.368 11.9468 17.1271 12.2972C16.8861 12.6476 16.7657 13.1185 16.7657 13.6879C16.7547 14.0712 16.8205 14.4544 16.9519 14.8158C17.0614 15.1115 17.2256 15.3743 17.4447 15.5933C17.6527 15.7904 17.9046 15.9437 18.1893 16.0313C18.4849 16.1298 18.7916 16.1737 19.0982 16.1737C19.2624 16.1737 19.4158 16.1627 19.5581 16.1517C19.7004 16.1627 19.8209 16.1408 19.9523 16.0971Z" fill="#FF61F6"/>
</svg>
