<svg width="288" height="62" viewBox="0 0 288 62" fill="none" xmlns="http://www.w3.org/2000/svg">
<g clip-path="url(#clip0_1_1759)">
<path d="M287.938 0.0712891H0V61.7722H287.938V0.0712891Z" fill="white"/>
<path d="M0.431196 19.6723C1.27465 18.0217 3.39616 17.204 5.14323 17.7839C6.23599 18.1296 7.12241 19.0084 7.53984 20.0687C9.87245 25.5841 12.2155 31.0957 14.5472 36.611C14.6112 36.4935 14.6724 36.3741 14.7258 36.2509C16.5178 32.0031 18.3241 27.76 20.1247 23.5151C20.9873 21.5197 22.3818 19.6733 24.3324 18.6426C25.4166 18.0637 26.6296 17.7466 27.8503 17.6463C31.0092 17.3015 34.2216 18.8069 36.1942 21.256C38.0272 19.6847 40.1429 18.3484 42.5224 17.8097C43.809 17.5126 45.1453 17.5699 46.4464 17.7294C48.073 17.9405 49.6806 18.5013 50.9884 19.51C51.6475 20.0056 52.2148 20.6132 52.7277 21.257C54.9868 19.0734 58.0378 17.6311 61.2081 17.5986C63.2284 17.5556 65.2706 18.0924 66.9709 19.1947C68.9281 20.4403 70.3761 22.4577 70.9025 24.7206C71.1604 25.7646 71.1719 26.8468 71.169 27.9157C71.169 32.5007 71.1681 37.0857 71.1699 41.6707C71.1575 42.2811 71.1347 42.9001 70.9665 43.4914C70.6723 44.6233 69.9206 45.6739 68.8268 46.1439C67.287 46.8164 65.2572 46.5643 64.1377 45.2384C63.236 44.2192 63.0086 42.7988 63.0478 41.4806C63.0498 37.2146 63.0478 32.9487 63.0487 28.6827C63.0478 27.5757 62.6409 26.4447 61.8251 25.6777C61.0792 24.9641 60.0389 24.6117 59.0159 24.604C57.8792 24.5754 56.7033 24.9355 55.8666 25.7264C55.0623 26.4762 54.6306 27.5833 54.6382 28.6761C54.6382 33.071 54.6391 37.4649 54.6373 41.8598C54.6315 42.9985 54.3689 44.1829 53.6419 45.0865C53.0678 45.8268 52.1938 46.3111 51.2701 46.4439C50.2394 46.5938 49.1247 46.4429 48.2583 45.8363C47.4779 45.3024 46.9612 44.4484 46.7186 43.5458C46.4702 42.6889 46.5113 41.7882 46.5103 40.9065C46.5103 36.8306 46.5094 32.7557 46.5113 28.6799C46.5017 27.6664 46.1684 26.6339 45.4816 25.8754C44.7117 25.01 43.533 24.5917 42.3915 24.6031C41.2424 24.5944 40.0551 24.9823 39.2413 25.8162C38.4618 26.5851 38.0845 27.6932 38.0864 28.7754C38.0864 33.2018 38.0854 37.6293 38.0864 42.0557C38.0787 43.1732 37.7597 44.3252 37.0252 45.1877C36.4864 45.8316 35.7156 46.2662 34.8922 46.4162C33.7097 46.6349 32.3896 46.4334 31.4562 45.632C30.4294 44.7598 29.9882 43.3729 29.9843 42.0586C29.9805 36.6731 29.9843 31.2886 29.9824 25.904C29.9929 25.4828 29.7875 25.0578 29.4245 24.8352C28.8696 24.4627 27.9955 24.6423 27.73 25.2851C25.2045 30.787 22.6751 36.2872 20.1534 41.7911C19.6041 42.9364 19.0242 44.0959 18.1531 45.0359C17.5188 45.7217 16.6735 46.2146 15.7517 46.3856C14.3036 46.6626 12.6865 46.4639 11.5088 45.5182C10.265 44.5182 9.54769 43.0453 8.89242 41.6277C6.03825 35.4112 3.17455 29.1995 0.325168 22.9821C-0.13142 21.9362 -0.117093 20.682 0.431196 19.6723Z" fill="#050038"/>
<path d="M166.767 18.5464C168.645 18.0354 170.637 17.98 172.548 18.3334C174.67 18.7241 176.682 19.7185 178.255 21.1981C181.206 23.9376 182.594 28.0584 182.532 32.0243C182.481 32.9471 181.644 33.7581 180.714 33.7399C174.232 33.7419 167.749 33.739 161.266 33.7409C161.415 35.6188 162.025 37.4777 163.097 39.0337C164.156 40.5764 165.712 41.7723 167.481 42.3827C169.307 43.0331 171.315 43.0694 173.198 42.6549C174.992 42.2565 176.652 41.3472 178.029 40.1399C178.345 39.8704 178.636 39.5457 179.04 39.4062C179.741 39.1388 180.585 39.4254 181.017 40.0299C181.489 40.6451 181.448 41.5936 180.912 42.1582C179.59 43.4993 178.042 44.6436 176.3 45.3772C174.529 46.1309 172.595 46.4375 170.677 46.447C168.659 46.4537 166.629 46.0354 164.808 45.1585C161.648 43.6798 159.189 40.8486 158.066 37.557C157.248 35.2424 157.049 32.7379 157.315 30.3069C157.699 26.9388 159.208 23.6539 161.727 21.3518C163.153 20.0355 164.892 19.0584 166.767 18.5464ZM166.774 22.1963C165.135 22.9193 163.783 24.2098 162.868 25.7401C161.946 27.2473 161.442 28.983 161.249 30.731C161.716 30.7635 162.185 30.7405 162.654 30.7472C167.94 30.7492 173.228 30.7425 178.514 30.7501C178.523 30.2917 178.429 29.8407 178.358 29.3899C178.028 27.5722 177.333 25.7869 176.154 24.3483C175.105 23.0521 173.616 22.1208 171.991 21.7473C170.262 21.3567 168.4 21.4665 166.774 22.1963Z" fill="#050038"/>
<path d="M74.387 18.2518C75.0556 18.0665 75.8389 18.2098 76.3374 18.7112C76.6278 18.9845 76.8341 19.336 76.9679 19.7095C79.2795 26.394 81.5844 33.0814 83.8864 39.7698C84.2169 38.974 84.4568 38.1421 84.7577 37.334C86.7874 31.4604 88.822 25.5898 90.8623 19.7199C91.0887 19.0389 91.5998 18.3951 92.3295 18.2356C93.045 18.0866 93.8693 18.1668 94.4367 18.6664C94.7959 18.9711 95.0184 19.399 95.1722 19.8375C97.3463 26.1428 99.5117 32.4519 101.682 38.7591C101.81 39.0944 101.893 39.4479 102.054 39.7707C104.395 33.0308 106.745 26.2937 109.096 19.5585C109.275 19.078 109.591 18.6263 110.057 18.3894C110.753 18.0341 111.651 18.1257 112.263 18.611C112.832 19.0428 113.113 19.8184 112.936 20.5128C112.806 21.0238 112.608 21.5139 112.433 22.0096C109.902 29.0571 107.351 36.0989 104.816 43.1454C104.615 43.6813 104.443 44.2287 104.219 44.7559C103.916 45.4245 103.342 46.0168 102.606 46.1782C101.898 46.3167 101.094 46.2088 100.549 45.7016C99.953 45.181 99.7725 44.3824 99.5165 43.6689C97.3634 37.4505 95.199 31.2359 93.0411 25.0194C93.0144 24.966 92.96 24.8599 92.9332 24.8065C92.0793 27.14 91.2884 29.4984 90.4554 31.8406C89.0351 35.8944 87.6166 39.9493 86.2009 44.006C86.0051 44.5677 85.8293 45.1704 85.388 45.5984C84.8044 46.2279 83.8368 46.3664 83.043 46.1181C82.2692 45.8697 81.7363 45.1637 81.4774 44.4207C78.7341 36.7599 75.9735 29.1058 73.2321 21.4441C73.0802 21.0028 72.8854 20.5576 72.9092 20.082C72.9045 19.2281 73.576 18.46 74.387 18.2518Z" fill="#050038"/>
<path d="M122.909 18.2698C125.084 18.1179 127.3 18.1046 129.432 18.6175C131.04 19.0006 132.594 19.7093 133.837 20.8136C135.321 22.0907 136.267 23.9047 136.689 25.7997C137.165 27.7761 137.012 29.8192 137.038 31.8319C137.038 35.9727 137.036 40.1135 137.039 44.2553C137.053 44.8714 136.778 45.4961 136.286 45.8734C135.699 46.33 134.857 46.3711 134.189 46.0749C133.561 45.796 133.147 45.1274 133.14 44.4454C133.131 43.5619 133.155 42.6782 133.13 41.7946C132.143 42.9982 130.99 44.0815 129.627 44.8485C127.772 45.9212 125.622 46.4417 123.485 46.4475C121.324 46.5 119.134 46.0119 117.243 44.9517C115.708 44.0862 114.394 42.769 113.696 41.1356C112.973 39.486 112.906 37.6071 113.265 35.859C113.643 34.0536 114.719 32.4184 116.208 31.3332C118.088 29.9472 120.421 29.3292 122.716 29.1076C126.215 28.8229 129.764 29.1984 133.135 30.1775C133.195 28.3979 133.04 26.5142 132.073 24.9687C131.292 23.6706 129.986 22.7508 128.557 22.2931C127.386 21.9111 126.147 21.763 124.919 21.7869C123.246 21.7612 121.553 21.9369 119.968 22.4938C119.455 22.6619 118.97 22.9016 118.465 23.0869C117.786 23.3334 116.991 23.0898 116.53 22.5472C115.832 21.7764 116.003 20.3494 116.962 19.8698C118.821 18.972 120.849 18.4227 122.909 18.2698ZM121.692 32.4451C120.344 32.8139 119.016 33.4901 118.161 34.6278C117.289 35.7549 117.029 37.2651 117.251 38.6511C117.457 39.9387 118.231 41.1031 119.298 41.8443C120.968 43.0374 123.11 43.3632 125.118 43.1835C127.186 43.0011 129.244 42.2599 130.821 40.8854C132.203 39.698 133.118 37.9528 133.183 36.1207C133.194 35.1474 133.186 34.1741 133.185 33.2017C131.479 32.6878 129.723 32.3486 127.952 32.1662C125.869 31.9742 123.731 31.8959 121.692 32.4451Z" fill="#050038"/>
<path d="M141.985 20.1771C141.969 19.1264 142.875 18.1511 143.932 18.1292C145.025 18.0546 146.046 18.986 146.07 20.0825C146.087 21.65 146.07 23.2194 146.076 24.7879C146.414 24.2081 146.693 23.5939 147.088 23.0475C148.757 20.6242 151.37 18.8112 154.283 18.2867C155.031 18.1789 155.864 18.0375 156.55 18.4482C157.756 19.1273 157.846 21.0884 156.734 21.8984C156.256 22.291 155.622 22.3244 155.039 22.4151C152.962 22.7791 150.961 23.7276 149.472 25.2388C148.232 26.4538 147.358 28.0088 146.824 29.6528C146.248 31.4304 146.041 33.3121 146.076 35.1758C146.076 38.1369 146.075 41.0981 146.076 44.0592C146.083 44.6238 145.876 45.1978 145.471 45.5971C144.978 46.1167 144.188 46.3116 143.503 46.1186C142.832 45.9572 142.274 45.4147 142.079 44.7555C141.948 44.3773 141.99 43.9732 141.986 43.5816C141.986 35.7804 141.987 27.9792 141.985 20.1771Z" fill="#050038"/>
</g>
<defs>
<clipPath id="clip0_1_1759">
<rect width="183" height="62" fill="white" transform="translate(0 0.000976562)"/>
</clipPath>
</defs>
</svg>
